PathFileType	4	(X/Y/Z)	D:\TRACE\spotREDO_2-26-24\spot_Both_Motion_1_4-v60.trc
DataRate	CameraRate	NumFrames	NumMarkers	Units	OrigDataRate	OrigDataStartFrame	OrigNumFrames
100.00	100.00	      13	9	mm	100.00	6126	      7000
Frame#	Time	front left toe			Front right toe			aft left toe			aft right toe			Arm			FL body			FR body			AL Body			AR Body			
		X1	Y1	Z1	X2	Y2	Z2	X3	Y3	Z3	X4	Y4	Z4	X5	Y5	Z5	X6	Y6	Z6	X7	Y7	Z7	X8	Y8	Z8	X9	Y9	Z9	

6126	61.250	-422.93668	2.39499	-602.19470	36.34420	10.49773	-421.19092	-670.61200	14.28891	-39.76057	-308.43427	21.66803	91.55320	-79.82104	674.63989	-833.86749	-256.37851	549.63092	-587.06836	-116.55437	551.71857	-515.88593	-661.21600	569.93176	199.43117	-536.17407	572.85223	265.16782	
6127	61.260	-423.08682	2.76772	-602.01202	35.69022	9.97910	-421.59808	-670.93030	14.72785	-39.44633	-308.53897	21.48877	91.61275	-78.60770	674.60785	-832.58496	-255.13782	549.63525	-586.03052	-115.46722	551.84558	-515.41949	-658.71478	569.44086	200.76035	-533.91473	572.75208	266.14990	
6128	61.270	-423.34015	3.45098	-601.93420	35.37466	9.95849	-421.52185	-671.40936	15.02660	-39.34081	-308.51215	21.19617	91.76687	-77.04768	674.43866	-831.09460	-253.30283	550.25677	-585.70764	-113.86969	551.93323	-514.50366	-656.79639	569.34332	202.08499	-531.65430	572.57617	267.38474	
6129	61.280	-423.27768	4.00941	-601.73236	34.83158	10.12769	-421.52194	-671.61047	15.19143	-39.22956	-308.58234	21.06645	92.04784	-75.55965	674.21478	-829.90411	-251.79889	550.42981	-584.70428	-111.97206	552.21149	-513.51703	-655.08826	569.14386	202.92604	-530.05603	572.20923	268.38519	
6130	61.290	-423.23782	4.38969	-601.67560	34.91728	10.21889	-421.04388	-671.85815	15.32915	-39.15561	-309.12622	20.85647	92.26498	-74.51586	673.87604	-828.66974	-249.69420	550.27911	-583.25696	-109.90210	552.32288	-512.10498	-653.62927	568.94446	203.84149	-528.76526	572.05432	269.08240	
6131	61.300	-423.14780	5.01284	-601.61157	35.79335	10.78714	-419.95786	-671.89642	15.26355	-39.14417	-309.29846	20.90252	92.44240	-73.56379	673.44781	-827.62415	-247.51801	550.50116	-582.05878	-107.77428	552.38538	-510.66412	-652.26776	568.55664	204.68161	-527.31805	571.83850	270.20966	
6132	61.310	-422.98947	5.48801	-601.53973	35.79835	10.73941	-419.65329	-672.05103	15.11828	-39.18446	-309.98547	20.83610	92.68845	-73.22591	673.47571	-827.12775	-244.52682	550.19501	-580.45587	-105.13530	552.45404	-509.16281	-651.21332	568.43042	205.24487	-526.40552	571.79846	270.97156	
6133	61.320	-423.10123	6.10898	-601.69794	35.80691	10.50105	-419.54782	-672.18176	15.06213	-39.24103	-310.67831	20.50019	92.80060	-73.47468	673.43695	-826.42926	-241.86145	550.81494	-579.65112	-103.13261	552.55493	-507.37573	-650.09143	568.34503	205.86771	-525.45648	571.72430	272.01733	
6134	61.330	-423.17041	6.69226	-601.59149	35.60483	10.42595	-419.10577	-672.57416	15.14383	-39.24470	-310.82611	20.50682	92.80177	-73.71766	673.29620	-825.90057	-239.05463	550.70526	-577.79492	-100.42062	552.61176	-505.51797	-649.00983	568.26025	206.68034	-524.58618	571.61847	272.82330	
6135	61.340	-423.06503	7.17641	-601.60858	35.27824	10.42125	-418.79578	-673.01349	15.46429	-39.33323	-311.18524	20.44780	92.82670	-74.52975	673.45477	-825.65753	-236.48412	550.46051	-575.74591	-98.22098	552.71936	-503.69791	-647.91608	567.97198	207.43153	-523.81207	571.61847	273.68469	
6136	61.350	-423.04962	7.74733	-601.57397	35.17176	10.39904	-418.43442	-673.23694	15.48960	-39.28859	-311.04050	20.42065	93.17829	-75.28981	673.30151	-825.63879	-234.19930	550.72443	-574.19617	-96.31139	553.00659	-502.20248	-646.80884	567.71094	208.31116	-522.36163	571.53247	275.10318	
6137	61.360	-423.80600	8.92627	-601.27148	35.08867	10.39264	-418.14352	-673.56622	15.51328	-39.27362	-311.16183	20.27828	93.62080	-76.30667	673.55481	-825.75165	-231.59721	550.83759	-573.14551	-91.49662	553.30853	-499.84753	-645.19824	567.43646	209.28743	-521.49994	571.53912	276.18658	
6138	61.370	-422.62592	10.34605	-600.80359	35.20588	10.08663	-417.60684	-673.54779	16.12914	-38.97719	-311.48767	19.10710	94.23441	-77.25732	673.63782	-825.88849	-229.38344	550.58936	-571.10547	-90.18272	553.55432	-498.19107	-643.48267	567.23737	210.61014	-519.51379	571.26617	277.71246	
